<?xml version="1.0" standalone="no"?>
<!DOCTYPE svg PUBLIC "-//W3C//DTD SVG 20010904//EN"
 "http://www.w3.org/TR/2001/REC-SVG-20010904/DTD/svg10.dtd">
<svg version="1.0" xmlns="http://www.w3.org/2000/svg"
 width="656.000000pt" height="536.000000pt" viewBox="0 0 656.000000 536.000000"
 preserveAspectRatio="xMidYMid meet">
<metadata>
Created by potrace 1.16, written by Peter Selinger 2001-2019
</metadata>
<g transform="translate(0.000000,536.000000) scale(0.100000,-0.100000)"
fill="#000000" stroke="none">
<path d="M1283 5053 c-18 -2 -33 -8 -33 -14 0 -5 -13 -9 -30 -9 -19 0 -34 -7
-42 -20 -7 -11 -19 -20 -26 -20 -16 0 -113 -97 -131 -133 -8 -15 -18 -27 -23
-27 -4 0 -8 -8 -8 -18 0 -10 -4 -22 -9 -27 -9 -10 -44 -117 -56 -170 -10 -45
-16 -2692 -7 -2921 l9 -202 37 -77 c32 -69 69 -124 108 -162 46 -46 110 -94
148 -113 99 -51 77 -50 1700 -50 1468 0 1517 1 1592 20 43 10 90 27 105 37 37
23 137 106 142 117 2 5 19 26 37 46 19 21 34 41 34 45 0 5 6 16 14 24 8 9 26
51 40 93 l26 77 0 1580 c0 1047 -3 1581 -10 1581 -5 0 -10 14 -10 30 0 17 -4
30 -10 30 -5 0 -10 13 -10 28 0 16 -8 34 -20 42 -11 8 -20 20 -20 27 0 19
-105 123 -123 123 -10 0 -17 5 -17 10 0 6 -9 10 -20 10 -11 0 -20 5 -20 10 0
6 -9 10 -19 10 -11 0 -21 6 -23 13 -4 9 -343 12 -1649 13 -904 1 -1659 -1
-1676 -3z m3244 -265 c41 -35 94 -94 109 -124 12 -22 14 -273 14 -1560 0
-1016 -3 -1534 -10 -1534 -5 0 -10 -12 -10 -26 0 -31 -28 -59 -82 -82 -21 -9
-38 -20 -38 -24 0 -5 -711 -8 -1580 -8 -1047 0 -1580 3 -1580 10 0 6 -11 10
-25 10 -34 0 -95 61 -95 95 0 14 -4 25 -10 25 -7 0 -10 523 -10 1550 0 1027 3
1550 10 1550 6 0 10 9 10 20 0 11 3 20 8 20 4 0 12 10 17 22 6 12 28 31 50 43
22 11 42 23 43 28 2 4 712 7 1578 7 l1574 0 27 -22z"/>
<path d="M1490 3092 l0 -1418 38 -19 c35 -18 73 -19 580 -23 l542 -4 0 131 0
131 -472 0 -473 0 3 1192 c2 930 5 1194 15 1200 6 4 541 8 1188 8 1082 0 1178
-1 1190 -17 11 -13 14 -88 14 -390 l0 -373 121 0 122 0 4 468 c2 257 0 469 -4
470 -4 2 -8 10 -8 17 0 7 -14 21 -32 29 -28 14 -178 16 -1430 16 l-1398 0 0
-1418z"/>
</g>
</svg>
