<?xml version="1.0" standalone="no"?>
<!DOCTYPE svg PUBLIC "-//W3C//DTD SVG 20010904//EN"
 "http://www.w3.org/TR/2001/REC-SVG-20010904/DTD/svg10.dtd">
<svg version="1.0" xmlns="http://www.w3.org/2000/svg"
 width="484.000000pt" height="456.000000pt" viewBox="0 0 484.000000 456.000000"
 preserveAspectRatio="xMidYMid meet">
<metadata>
Created by potrace 1.16, written by Peter Selinger 2001-2019
</metadata>
<g transform="translate(0.000000,456.000000) scale(0.100000,-0.100000)"
fill="#000000" stroke="none">
<path d="M680 4313 c-26 -8 -84 -34 -102 -43 -10 -6 -25 -10 -33 -10 -8 0 -15
-4 -15 -8 0 -5 -12 -15 -27 -23 -34 -17 -133 -114 -133 -130 0 -6 -8 -19 -18
-28 -9 -9 -23 -34 -30 -56 -7 -22 -17 -49 -21 -60 -29 -71 -31 -172 -31 -1594
0 -1400 5 -1650 31 -1659 5 -2 9 -17 9 -33 0 -16 5 -29 10 -29 6 0 10 -13 10
-30 0 -16 4 -30 8 -30 5 0 15 -12 23 -27 18 -36 137 -153 155 -153 8 0 14 -4
14 -10 0 -5 9 -10 19 -10 11 0 21 -6 23 -12 4 -10 352 -13 1699 -13 l1695 0
70 35 c69 35 156 112 183 163 8 15 18 27 23 27 4 0 8 14 8 30 0 17 5 30 10 30
6 0 10 14 10 30 0 17 5 30 10 30 7 0 10 547 10 1620 0 1073 -3 1620 -10 1620
-5 0 -10 14 -10 30 0 17 -4 30 -10 30 -5 0 -10 14 -10 30 0 17 -4 30 -8 30 -5
0 -15 12 -23 28 -20 39 -113 132 -132 132 -10 0 -17 5 -17 10 0 6 -9 10 -20
10 -11 0 -20 5 -20 10 0 6 -9 10 -20 10 -11 0 -20 5 -20 10 0 6 -13 10 -30 10
-16 0 -30 4 -30 9 0 5 -17 12 -37 16 -42 9 -3189 17 -3213 8z m3251 -320 c27
-26 61 -70 74 -98 l25 -51 -2 -1504 c-4 -1732 6 -1572 -101 -1678 l-58 -57
-1589 -3 c-1065 -1 -1590 1 -1590 8 0 5 -8 10 -17 10 -25 0 -103 77 -103 101
0 10 -4 19 -10 19 -7 0 -10 533 -10 1580 0 1047 3 1580 10 1580 6 0 10 9 10
20 0 11 5 20 10 20 6 0 10 9 10 19 0 12 12 25 30 33 17 7 30 16 30 20 0 5 9 8
20 8 11 0 20 5 20 10 0 7 539 10 1596 10 l1595 0 50 -47z"/>
<path d="M870 3400 l0 -380 101 0 102 0 -5 249 c-5 232 -4 249 13 260 27 16
2360 16 2377 -1 18 -18 17 -2383 0 -2395 -20 -13 -2349 -16 -2373 -3 -19 10
-20 19 -17 210 l4 200 -101 0 -101 0 0 -320 0 -320 1398 0 c1074 0 1401 3
1410 12 9 9 12 337 12 1413 0 1323 -1 1403 -17 1417 -47 38 -32 38 -1438 38
l-1365 0 0 -380z"/>
</g>
</svg>
