<?xml version="1.0" standalone="no"?>
<!DOCTYPE svg PUBLIC "-//W3C//DTD SVG 20010904//EN"
 "http://www.w3.org/TR/2001/REC-SVG-20010904/DTD/svg10.dtd">
<svg version="1.0" xmlns="http://www.w3.org/2000/svg"
 width="600.000000pt" height="568.000000pt" viewBox="0 0 600.000000 568.000000"
 preserveAspectRatio="xMidYMid meet">
<metadata>
Created by potrace 1.16, written by Peter Selinger 2001-2019
</metadata>
<g transform="translate(0.000000,568.000000) scale(0.100000,-0.100000)"
fill="#000000" stroke="none">
<path d="M955 5540 c-16 -4 -47 -8 -67 -9 -21 0 -38 -5 -38 -11 0 -5 -13 -10
-30 -10 -16 0 -30 -4 -30 -10 0 -5 -13 -10 -28 -10 -16 0 -34 -8 -42 -20 -8
-11 -20 -20 -27 -20 -17 0 -114 -98 -132 -133 -8 -15 -18 -27 -23 -27 -4 0 -8
-13 -8 -30 0 -16 -4 -30 -10 -30 -5 0 -10 -13 -10 -30 0 -16 -4 -30 -10 -30
-7 0 -10 -543 -10 -1610 0 -1067 3 -1610 10 -1610 6 0 10 -13 10 -30 0 -16 5
-30 10 -30 6 0 10 -13 10 -30 0 -16 4 -30 8 -30 5 0 15 -12 23 -27 22 -42 131
-153 151 -153 10 0 18 -4 18 -10 0 -5 9 -10 20 -10 11 0 20 -4 20 -10 0 -5 18
-10 39 -10 23 0 41 -5 43 -12 4 -10 343 -13 1654 -13 1628 0 1650 0 1679 20
17 11 39 25 50 31 11 6 31 17 44 25 30 17 131 115 131 127 0 4 8 17 18 28 10
10 24 39 32 64 7 25 17 50 21 55 26 37 29 208 29 1652 -1 1432 -1 1501 -19
1563 -26 91 -43 132 -63 154 -10 11 -18 23 -18 28 0 22 -113 117 -176 147 -96
48 -101 50 -169 60 -72 12 -3065 12 -3110 1z m3135 -280 c0 -5 9 -10 20 -10
11 0 20 -4 20 -10 0 -5 9 -10 19 -10 12 0 25 -12 33 -30 7 -16 16 -30 20 -30
5 0 8 -9 8 -20 0 -11 5 -20 10 -20 7 0 10 -530 10 -1570 0 -1040 -3 -1570 -10
-1570 -5 0 -10 -11 -10 -25 0 -29 -40 -75 -65 -75 -8 0 -15 -4 -15 -10 0 -5
-9 -10 -20 -10 -11 0 -20 -4 -20 -10 0 -7 -539 -10 -1597 -10 l-1598 1 -50 49
c-27 28 -56 50 -62 50 -8 0 -13 13 -13 30 0 23 -4 30 -20 30 -20 0 -20 7 -20
1519 l0 1519 21 5 c15 4 19 11 14 25 -3 11 -1 23 5 27 5 3 10 16 10 29 0 13 9
31 20 41 11 10 20 24 20 32 0 7 16 21 35 30 19 9 35 20 35 25 0 4 720 8 1600
8 1060 0 1600 -3 1600 -10z"/>
<path d="M1090 4970 c0 -11 -4 -20 -10 -20 -7 0 -10 -237 -10 -690 l0 -690
120 0 120 0 0 590 0 590 26 10 c15 6 262 10 633 10 l608 0 7 46 c3 26 6 75 6
110 l0 64 -750 0 c-743 0 -750 0 -750 -20z"/>
<path d="M3750 3172 l0 -799 -25 -11 c-19 -9 -236 -12 -810 -12 l-785 0 0
-120 0 -120 875 0 875 0 35 38 c19 20 35 43 35 50 0 6 5 12 10 12 7 0 10 300
10 880 l0 880 -110 0 -110 0 0 -798z"/>
</g>
</svg>
