<?xml version="1.0" standalone="no"?>
<!DOCTYPE svg PUBLIC "-//W3C//DTD SVG 20010904//EN"
 "http://www.w3.org/TR/2001/REC-SVG-20010904/DTD/svg10.dtd">
<svg version="1.0" xmlns="http://www.w3.org/2000/svg"
 width="560.000000pt" height="536.000000pt" viewBox="0 0 560.000000 536.000000"
 preserveAspectRatio="xMidYMid meet">
<metadata>
Created by potrace 1.16, written by Peter Selinger 2001-2019
</metadata>
<g transform="translate(0.000000,536.000000) scale(0.100000,-0.100000)"
fill="#000000" stroke="none">
<path d="M604 5241 c-50 -3 -97 -11 -105 -17 -8 -6 -34 -17 -59 -24 -25 -8
-52 -22 -61 -32 -9 -10 -21 -18 -28 -18 -15 0 -112 -99 -130 -133 -8 -15 -18
-27 -23 -27 -4 0 -8 -13 -8 -30 0 -16 -3 -30 -8 -30 -13 0 -32 -80 -43 -183
-6 -66 -9 -621 -7 -1572 l3 -1470 28 -74 c31 -84 78 -159 135 -215 44 -42 48
-44 151 -99 l71 -37 1617 2 1618 3 57 30 c60 32 96 58 163 117 44 39 114 167
137 248 17 61 25 2917 8 3060 -20 176 -43 229 -144 331 -94 94 -125 116 -217
150 l-64 24 -1500 1 c-825 1 -1541 -2 -1591 -5z m3086 -281 c0 -5 9 -10 20
-10 11 0 20 -4 20 -10 0 -5 7 -10 16 -10 20 0 44 -24 44 -44 0 -9 5 -16 10
-16 6 0 10 -9 10 -20 0 -11 5 -20 10 -20 7 0 10 -527 10 -1560 0 -1033 -3
-1560 -10 -1560 -5 0 -10 -12 -10 -26 0 -27 -43 -74 -67 -74 -7 0 -13 -4 -13
-10 0 -5 -9 -10 -20 -10 -11 0 -20 -4 -20 -10 0 -7 -530 -10 -1570 -10 -1040
0 -1570 3 -1570 10 0 6 -11 10 -25 10 -34 0 -95 61 -95 95 0 14 -4 25 -10 25
-12 0 -14 3116 -2 3122 4 2 18 24 31 51 13 26 29 47 36 47 17 0 65 24 65 33 0
4 707 7 1570 7 1040 0 1570 -3 1570 -10z"/>
</g>
</svg>
